<?xml version="1.0" encoding="UTF-8"?>
<svg id="Layer_1" data-name="Layer 1" xmlns="http://www.w3.org/2000/svg" viewBox="0 0 126 35">
  <defs>
    <style>
      .cls-1 {
        fill: #e26826;
      }
    </style>
  </defs>
  <g>
    <g>
      <path class="cls-1" d="M50.89,6.22h-3.87v9.62h-2.42V6.22h-3.89v-1.94h10.18v1.94Z"/>
      <path class="cls-1" d="M58.87,12.37h-6.2c.25,1.26,1.02,1.86,2.19,1.86,1.02,0,1.68-.39,1.93-1.09l1.96.72c-.56,1.4-1.91,2.15-3.89,2.15-2.91,0-4.55-1.68-4.55-4.55s1.59-4.55,4.41-4.55,4.22,1.65,4.22,4.52c0,.25-.03.72-.07.95ZM52.65,10.68h4.08c-.19-1.31-.93-2.01-2.03-2.01s-1.86.68-2.05,2.01Z"/>
      <path class="cls-1" d="M74.54,7.08l-2.78,8.76h-2.79l-1.91-6.18-1.84,6.18h-2.77l-2.78-8.76h2.54l1.75,6.83,1.96-6.83h2.36l1.96,6.83,1.75-6.83h2.54Z"/>
      <path class="cls-1" d="M84.49,14.31l-.17,1.45c-.32.16-.7.25-1.14.25-1.05,0-1.77-.37-2.01-1.31-.53.86-1.63,1.31-3.1,1.31-1.66,0-2.72-.77-2.72-2.24,0-1.37,1.07-2.33,3.42-2.77l2.1-.4v-.42c0-.93-.54-1.52-1.49-1.52-1.02,0-1.75.39-2.01,1.49l-1.91-.81c.37-1.49,1.68-2.43,3.82-2.43,2.44,0,3.98,1.05,3.98,3.22v3.59c0,.46.19.67.65.67.21,0,.42-.02.6-.07ZM80.86,12.98v-.91l-1.87.42c-.77.18-1.17.46-1.17,1.03s.37.86,1,.86c.91,0,2.05-.47,2.05-1.4Z"/>
      <path class="cls-1" d="M94.19,10.09v5.74h-2.4v-5.04c0-1.51-.65-2-1.56-2-1.02,0-2.01.67-2.01,2.42v4.62h-2.4V3.24h2.4v5.32c.56-1.12,1.58-1.66,2.82-1.66,1.82,0,3.15,1.07,3.15,3.19Z"/>
      <path class="cls-1" d="M104.64,12.37h-6.2c.25,1.26,1.02,1.86,2.19,1.86,1.02,0,1.68-.39,1.93-1.09l1.96.72c-.56,1.4-1.91,2.15-3.89,2.15-2.91,0-4.55-1.68-4.55-4.55s1.59-4.55,4.41-4.55,4.22,1.65,4.22,4.52c0,.25-.03.72-.07.95ZM98.42,10.68h4.08c-.19-1.31-.93-2.01-2.03-2.01s-1.86.68-2.05,2.01Z"/>
      <path class="cls-1" d="M115.07,3.24v12.59h-2.14l-.11-1.58c-.51,1.05-1.54,1.75-2.89,1.75-2.33,0-3.75-1.68-3.75-4.54s1.44-4.57,3.75-4.57c1.28,0,2.22.63,2.73,1.59V3.24h2.4ZM112.68,11.96v-1.02c-.12-1.4-.86-2.21-2.01-2.21-1.28,0-2.05.93-2.05,2.72s.77,2.71,2.05,2.71c1.14,0,1.89-.77,2.01-2.21Z"/>
      <path class="cls-1" d="M126,11.46c0,2.86-1.66,4.55-4.48,4.55s-4.48-1.7-4.48-4.55,1.66-4.55,4.48-4.55,4.48,1.7,4.48,4.55ZM119.43,11.46c0,1.86.74,2.77,2.08,2.77s2.08-.91,2.08-2.77-.74-2.77-2.08-2.77-2.08.91-2.08,2.77Z"/>
    </g>
    <g>
      <path class="cls-1" d="M48.79,28.76h-4.47l-.95,2.82h-2.47l4.22-11.56h2.89l4.22,11.56h-2.5l-.95-2.82ZM48.2,26.98l-1.1-3.26-.53-1.75h-.03l-.49,1.72-1.1,3.29h3.26Z"/>
      <path class="cls-1" d="M61.96,25.84v5.74h-2.4v-5.04c0-1.51-.65-2-1.56-2-1.02,0-2.01.67-2.01,2.42v4.62h-2.4v-8.76h2.15l.09,1.56c.58-1.17,1.66-1.73,2.98-1.73,1.82,0,3.15,1.07,3.15,3.19Z"/>
      <path class="cls-1" d="M63.64,30.08l1.4-1.44c.49,1.05,1.44,1.37,2.63,1.37,1.03,0,1.61-.32,1.61-.79,0-.4-.47-.65-1.75-.91-2.73-.54-3.64-1.38-3.64-2.84s1.35-2.82,3.94-2.82c2.01,0,3.1.6,3.91,1.86l-1.49,1.26c-.51-.91-1.21-1.37-2.38-1.37-.98,0-1.58.39-1.58.84s.44.77,1.91,1.07c2.56.51,3.5,1.28,3.5,2.73,0,1.58-1.38,2.72-3.99,2.72-1.8,0-3.26-.49-4.06-1.68Z"/>
      <path class="cls-1" d="M87.11,22.83l-2.78,8.76h-2.79l-1.91-6.18-1.84,6.18h-2.77l-2.78-8.76h2.54l1.75,6.83,1.96-6.83h2.36l1.96,6.83,1.75-6.83h2.54Z"/>
      <path class="cls-1" d="M96.47,28.12h-6.2c.25,1.26,1.02,1.86,2.19,1.86,1.02,0,1.68-.39,1.93-1.09l1.96.72c-.56,1.4-1.91,2.15-3.89,2.15-2.91,0-4.55-1.68-4.55-4.55s1.59-4.55,4.41-4.55,4.22,1.65,4.22,4.52c0,.25-.03.72-.07.95ZM90.26,26.43h4.08c-.19-1.31-.93-2.01-2.03-2.01s-1.86.68-2.05,2.01Z"/>
      <path class="cls-1" d="M104.34,22.84l-.3,2.1c-.25-.16-.65-.26-1.1-.26-1.05,0-2.1.77-2.1,2.36v4.54h-2.4v-8.76h2.08l.16,1.72c.46-1.21,1.35-1.89,2.72-1.89.39,0,.74.07.95.19Z"/>
      <path class="cls-1" d="M104.81,30.08l1.4-1.44c.49,1.05,1.44,1.37,2.63,1.37,1.03,0,1.61-.32,1.61-.79,0-.4-.47-.65-1.75-.91-2.73-.54-3.64-1.38-3.64-2.84s1.35-2.82,3.94-2.82c2.01,0,3.1.6,3.91,1.86l-1.49,1.26c-.51-.91-1.21-1.37-2.38-1.37-.98,0-1.58.39-1.58.84s.44.77,1.91,1.07c2.56.51,3.5,1.28,3.5,2.73,0,1.58-1.38,2.72-3.99,2.72-1.8,0-3.26-.49-4.06-1.68Z"/>
    </g>
  </g>
  <g>
    <g>
      <g>
        <g>
          <path class="cls-1" d="M24.19,8.27c-.3,1-1.03,1.81-2,2.22-1.09.46-1.92,1.34-2.29,2.42v.02h-1.68c-.04-.15-.03-.31.02-.47l.03-.1c.52-1.55,1.71-2.81,3.25-3.45.49-.21.86-.62,1.02-1.13.15-.51.06-1.04-.21-1.47-.21-.33-.53-.6-.93-.73-.46-.15-.94-.11-1.37.11-.29.15-.52.36-.69.62h-1.86s.01-.06.02-.09c.28-.9.9-1.63,1.74-2.06.84-.43,1.79-.5,2.68-.21.86.29,1.57.89,2,1.71.11.21.2.43.26.65.18.64.18,1.31-.01,1.96Z"/>
          <path class="cls-1" d="M16.37,12.47c.05.16.06.32.02.47h-1.67v-.02c-.37-1.08-1.21-1.97-2.3-2.42-.97-.4-1.7-1.21-2-2.22-.19-.64-.19-1.32,0-1.96.06-.22.15-.44.26-.65.42-.81,1.13-1.42,2-1.71.9-.29,1.85-.22,2.69.21.84.43,1.45,1.16,1.74,2.06.01.03.02.06.02.09h-1.85c-.17-.26-.4-.48-.69-.62-.43-.22-.91-.26-1.37-.11-.4.13-.72.39-.93.73-.27.42-.37.96-.21,1.47.15.51.52.92,1.02,1.13,1.54.64,2.73,1.9,3.25,3.45l.03.1Z"/>
        </g>
        <g>
          <path class="cls-1" d="M31.02,22.24c-.29.86-.89,1.57-1.7,2-.21.11-.42.19-.64.25-.32.1-.64.14-.97.14s-.67-.05-1-.15c-1-.3-1.81-1.03-2.22-2-.46-1.09-1.34-1.92-2.42-2.29h-.01v-1.68c.15-.03.31-.03.46.02l.1.03c1.55.53,2.81,1.71,3.46,3.25.21.49.62.86,1.13,1.02.52.15,1.06.06,1.48-.22.33-.21.59-.53.72-.92.15-.46.11-.94-.1-1.37-.15-.28-.35-.51-.61-.68v-1.86s.05,0,.08.02c.9.28,1.63.9,2.06,1.74s.5,1.79.21,2.68Z"/>
          <path class="cls-1" d="M30.82,15.65c-.43.84-1.16,1.46-2.06,1.74-.03,0-.05.02-.08.02v-1.86c.26-.17.47-.4.61-.68.22-.43.25-.91.1-1.37-.13-.39-.39-.71-.72-.92-.42-.28-.96-.37-1.48-.22-.51.15-.92.52-1.13,1.02-.65,1.54-1.91,2.73-3.46,3.25l-.1.03c-.15.05-.31.06-.46.02v-1.68h.01c1.08-.37,1.97-1.21,2.42-2.29.4-.97,1.21-1.7,2.22-2,.65-.2,1.33-.2,1.97,0,.22.06.44.15.64.25.81.42,1.42,1.13,1.7,2,.29.9.22,1.85-.21,2.69Z"/>
        </g>
        <g>
          <path class="cls-1" d="M17.52,28.69s-.01.06-.02.09c-.28.9-.9,1.63-1.74,2.06-.5.26-1.04.39-1.59.39-.37,0-.74-.06-1.1-.18-.86-.29-1.57-.89-2-1.7-.11-.21-.2-.43-.26-.65-.19-.64-.19-1.31,0-1.96.3-1,1.03-1.81,2-2.22,1.09-.46,1.92-1.34,2.29-2.42v-.02h1.68c.04.15.03.31-.02.47l-.03.1c-.52,1.55-1.71,2.81-3.25,3.45-.5.21-.86.62-1.02,1.13-.15.51-.06,1.04.21,1.47.21.33.53.6.93.73.46.15.94.11,1.37-.11.29-.15.52-.36.69-.62h1.85Z"/>
          <path class="cls-1" d="M24.6,28.69c-.06.22-.15.44-.26.65-.42.81-1.13,1.42-2,1.7-.36.12-.73.18-1.1.18-.55,0-1.09-.13-1.59-.39-.84-.43-1.46-1.16-1.74-2.06-.01-.03-.02-.06-.02-.09h1.86c.17.26.4.48.68.62.43.22.91.25,1.37.11.4-.13.72-.4.93-.73.27-.42.37-.96.21-1.47-.15-.51-.52-.92-1.02-1.13-1.54-.64-2.73-1.9-3.25-3.45l-.03-.1c-.05-.16-.06-.32-.02-.47h1.67v.02c.37,1.08,1.21,1.97,2.3,2.42.97.4,1.7,1.21,2,2.22.19.65.19,1.32,0,1.96Z"/>
        </g>
        <g>
          <path class="cls-1" d="M12.93,15.01v1.68c-.15.03-.31.03-.46-.02l-.1-.03c-1.55-.52-2.81-1.71-3.46-3.25-.21-.5-.62-.86-1.13-1.02-.52-.15-1.06-.06-1.48.22-.33.21-.59.53-.72.92-.15.46-.11.94.1,1.37.14.28.35.51.61.68v1.86s-.05-.01-.08-.02c-.9-.28-1.63-.9-2.06-1.74-.43-.84-.5-1.79-.21-2.69.29-.86.89-1.57,1.7-2,.21-.11.42-.19.64-.25.64-.19,1.32-.19,1.97,0,1,.3,1.81,1.03,2.22,2,.46,1.09,1.34,1.92,2.42,2.29h.01Z"/>
          <path class="cls-1" d="M12.93,18.52v1.68h-.01c-1.08.37-1.97,1.21-2.42,2.29-.41.97-1.21,1.7-2.22,2-.33.1-.66.15-1,.15s-.65-.05-.97-.14c-.22-.06-.44-.15-.64-.25-.81-.42-1.42-1.13-1.7-2-.29-.89-.22-1.85.21-2.68s1.16-1.46,2.06-1.74c.03,0,.05-.01.08-.02v1.86c-.26.17-.47.4-.61.68-.22.43-.25.91-.1,1.37.13.39.39.71.72.92.42.28.96.37,1.48.22.51-.15.92-.53,1.13-1.02.65-1.54,1.91-2.73,3.46-3.25l.1-.03c.15-.05.31-.06.46-.02Z"/>
        </g>
      </g>
      <path class="cls-1" d="M20.15,17.5c0,1.47-1.19,2.66-2.66,2.66s-2.66-1.19-2.66-2.66,1.19-2.66,2.66-2.66,2.66,1.19,2.66,2.66Z"/>
    </g>
    <path class="cls-1" d="M20.85,1.72c.59,0,1.18.09,1.74.28,1.38.46,2.5,1.42,3.18,2.71.18.34.32.69.42,1.04.28.96.28,1.99.02,2.97.48-.14.99-.21,1.5-.21s1.04.07,1.54.22c.35.1.7.24,1.04.42,1.28.67,2.24,1.79,2.7,3.17.47,1.43.35,2.95-.33,4.27-.19.37-.42.7-.67,1.01.25.31.48.65.67,1.01.68,1.33.8,2.85.33,4.27-.46,1.38-1.42,2.51-2.71,3.18-.32.17-.67.31-1.02.41-.5.15-1.02.22-1.55.22-.34,0-.69-.03-1.02-.1.18.88.15,1.79-.1,2.65-.09.34-.23.69-.41,1.04-.68,1.3-1.81,2.26-3.19,2.72-.56.19-1.15.28-1.75.28-.88,0-1.75-.21-2.53-.62-.36-.19-.7-.41-1-.67-.31.25-.65.48-1.01.67-.78.4-1.65.61-2.52.61-.6,0-1.18-.09-1.75-.29-1.37-.45-2.5-1.41-3.17-2.7-.18-.35-.32-.7-.42-1.04-.26-.9-.29-1.84-.08-2.76-.48.13-.98.21-1.48.21s-1.05-.07-1.54-.22c-.35-.1-.7-.24-1.03-.41-1.28-.67-2.24-1.79-2.7-3.17-.47-1.43-.35-2.94.33-4.27.19-.37.42-.7.67-1.01-.25-.31-.48-.64-.67-1.01-.68-1.33-.8-2.85-.33-4.27.46-1.38,1.42-2.5,2.71-3.18.32-.17.67-.31,1.03-.41.5-.15,1.02-.22,1.54-.22.37,0,.74.04,1.11.12-.24-.96-.23-1.94.05-2.87.09-.34.23-.69.41-1.03.68-1.31,1.81-2.27,3.18-2.72.57-.19,1.16-.28,1.75-.28.87,0,1.75.21,2.53.61.37.19.7.42,1.01.67.31-.26.65-.48,1.02-.67.78-.4,1.65-.61,2.52-.61M20.85,0c-1.14,0-2.28.28-3.3.8-.08.04-.16.08-.24.13-.08-.04-.15-.08-.23-.12-1.03-.53-2.17-.8-3.31-.8-.78,0-1.55.12-2.29.37-1.8.6-3.28,1.86-4.16,3.56-.23.45-.41.9-.54,1.36-.15.51-.24,1.02-.27,1.55-.43.05-.85.13-1.26.25-.48.14-.93.32-1.35.54-1.67.87-2.93,2.35-3.53,4.15-.62,1.87-.46,3.86.43,5.6.04.08.08.15.12.23-.04.07-.08.15-.12.23-.9,1.75-1.05,3.74-.43,5.6.6,1.8,1.85,3.28,3.53,4.15.42.22.88.4,1.34.54.54.16,1.11.26,1.68.28.04.44.12.88.25,1.31.13.45.31.91.54,1.37.88,1.7,2.36,2.96,4.16,3.55.73.25,1.51.37,2.29.37,1.15,0,2.29-.28,3.31-.8.08-.04.15-.08.23-.12.07.04.15.08.22.12,1.02.52,2.16.8,3.32.8.78,0,1.55-.13,2.29-.37,1.8-.59,3.28-1.86,4.16-3.55h0s0-.02,0-.02c.23-.44.4-.9.53-1.35.13-.44.21-.88.25-1.34.42-.05.84-.13,1.24-.25.46-.13.91-.31,1.34-.53,1.69-.88,2.94-2.36,3.54-4.16.62-1.86.46-3.85-.43-5.59-.04-.08-.08-.15-.12-.23.04-.07.08-.15.12-.23.89-1.74,1.05-3.73.43-5.6-.6-1.8-1.85-3.28-3.53-4.15-.43-.23-.88-.41-1.36-.55-.53-.16-1.07-.25-1.62-.28-.03-.51-.12-1.03-.26-1.52-.13-.46-.32-.93-.55-1.37-.88-1.69-2.35-2.95-4.16-3.54-.74-.25-1.5-.37-2.28-.37h0Z"/>
  </g>
</svg>